# xmcd
#
# Track frame offsets:
#	150
#	15197
#	32267
#	51745
#	68305
#	90120
#	96420
#	106210
#	121682
#	139245
#	156952
#	172135
#
# Disc length: 2537 seconds
#
# Revision: 0
# Processed by: cddbd v1.5.2PL0 Copyright (c) Steve Scherf et al.
# Submitted via: EasyCDDAExtractor 2010.6.0.0
#
DISCID=8c09e70c
DTITLE=Weird Al Yankovic - Bad Hair Day
DYEAR=1996
DGENRE=satire
TTITLE0=Amish Paradise
TTITLE1=Everything You Know Is Wrong
TTITLE2=Cavity Search
TTITLE3=Callin' In Sick
TTITLE4=The Alternative Polka
TTITLE5=Since You've Been Gone
TTITLE6=Gump
TTITLE7=I'm So Sick Of You
TTITLE8=Syndicated Inc.
TTITLE9=I Remember Larry
TTITLE10=Phony Calls
TTITLE11=The Night Santa Went Crazy
EXTD=
EXTT0=
EXTT1=
EXTT2=
EXTT3=
EXTT4=
EXTT5=
EXTT6=
EXTT7=
EXTT8=
EXTT9=
EXTT10=
EXTT11=
PLAYORDER=
